<?xml version="1.0" encoding="UTF-8"?>
<svg id="Layer_1" xmlns="http://www.w3.org/2000/svg" version="1.1" viewBox="0 0 159.7 47.1">
  <!-- Generator: Adobe Illustrator 29.8.1, SVG Export Plug-In . SVG Version: 2.1.1 Build 2)  -->
  <defs>
    <style>
      .st0 {
        fill: #fff;
      }

      .st1 {
        fill: #60a6fa;
      }
    </style>
  </defs>
  <path class="st0" d="M0,42.5l4.9-11.1c4.3,2.5,9.9,4.1,14.9,4.1s5.9-.9,5.9-2.4c0-5.7-24.9-1.1-24.9-17.9S7.8,0,21.8,0s12.3,1.3,17,3.9l-4.6,11c-4.4-2.3-8.6-3.3-12.6-3.3s-5.9,1.3-5.9,2.8c0,5.4,24.9.9,24.9,17.5s-7,15.2-21,15.2-15.1-1.8-19.6-4.6Z"/>
  <path class="st1" d="M118.5,1l-14.4,45.1h-16.3l-7.3-24.1-7.7,24.1h-16.2L42.1,1h15.7l7.9,25.6L73.9,1h14l7.9,26L104.1,1h14.4Z"/>
  <path class="st0" d="M119,42.5l4.9-11.1c4.3,2.5,9.9,4.1,14.9,4.1s5.9-.9,5.9-2.4c0-5.7-24.9-1.1-24.9-17.9S126.8,0,140.8,0s12.3,1.3,17,3.9l-4.6,11c-4.4-2.3-8.6-3.3-12.6-3.3s-5.9,1.3-5.9,2.8c0,5.4,24.9.9,24.9,17.5s-7,15.2-21,15.2-15.1-1.8-19.6-4.6Z"/>
</svg>